<?xml version="1.0" encoding="utf-8"?>
<!-- Generator: Adobe Illustrator 19.0.0, SVG Export Plug-In . SVG Version: 6.00 Build 0)  -->
<svg version="1.1" id="Layer_1" xmlns="http://www.w3.org/2000/svg" xmlns:xlink="http://www.w3.org/1999/xlink" x="0px" y="0px"
	 viewBox="95 -385.8 1271.6 351.9" style="enable-background:new 95 -385.8 1271.6 351.9;" xml:space="preserve">
<style type="text/css">
	.st0{fill:#231F20;}
	.st1{fill:#2A2173;}
	.st2{fill:#FFFFFF;}
	.st3{fill:#E77B1A;}
	.st4{fill:#2E3191;}
	.st5{fill:#FFF100;}
	.st6{clip-path:url(#SVGID_2_);fill:url(#XMLID_3_);}
</style>
<g id="XMLID_4_">
	<path id="XMLID_40_" class="st0" d="M444.3-241c0,48.7-11.6,94-34.4,136.4c-9.3,17.2-20,33.4-31.7,49c-0.7,1-1.7,1.5-2.8,1.9
		c-17.8,6.7-36,11.9-54.8,15.2c-13.1,2.3-26.2,3.6-39.4,4.3c-13.3,0.7-26.5,0.1-39.7-1.2c-26.9-2.6-52.9-8.9-78.3-17.9
		c-1.1-0.4-2-1-2.7-2c-21.8-28.4-39.1-59.2-50.5-93.2c-5.1-15.3-9-31-11.4-47c-1.8-11.6-2.8-23.2-3.3-34.9
		c-0.4-9.4-0.1-18.8,0.1-28.3c0-1.2,0.6-2.1,1.1-3c8.7-13.5,18.3-26.3,29.1-38.2c25.4-27.7,55.5-49.1,89.4-65.3
		c17-8.1,34.7-14.7,52.7-20.2c1.4-0.4,2.8-0.6,4.2-0.2c39.6,10.3,75.4,28.2,107.2,53.9c24.6,19.9,45.3,43.3,63.2,69.2
		c1,1.4,1.5,2.8,1.5,4.5C443.8-252.1,444.6-246.3,444.3-241z"/>
	<path id="XMLID_44_" class="st1" d="M440.7-240.4c0,47.7-11.3,92-33.7,133.6c-9.1,16.8-19.6,32.7-31,48c-0.7,1-1.7,1.4-2.7,1.8
		c-17.4,6.6-35.3,11.7-53.6,14.9c-12.8,2.3-25.6,3.6-38.6,4.2s-26,0.1-38.9-1.1c-26.3-2.6-51.8-8.7-76.7-17.5
		c-1.1-0.4-1.9-1-2.7-1.9c-21.3-27.8-38.3-57.9-49.4-91.2c-5-15-8.8-30.4-11.2-46c-1.7-11.3-2.7-22.7-3.3-34.2
		c-0.4-9.2-0.1-18.5,0.1-27.7c0-1.1,0.5-2,1.1-2.9c8.5-13.3,17.9-25.8,28.5-37.4c24.8-27.3,54.3-48.3,87.5-64.2
		c16.7-8,33.9-14.4,51.6-19.7c1.4-0.4,2.7-0.5,4.2-0.2c38.7,10.1,73.8,27.6,104.9,52.8c24,19.5,44.4,42.4,61.9,67.8
		c0.9,1.3,1.5,2.7,1.5,4.4C440.2-251.3,441-245.6,440.7-240.4z"/>
	<path id="XMLID_47_" class="st2" d="M269.6-33.9c-8.9,0-18.1-0.5-28-1.4c-25.7-2.5-51.2-8.3-77.9-17.8c-1.5-0.5-2.6-1.4-3.6-2.6
		c-22.9-29.9-39.4-60.2-50.2-92.7c-5.1-15.4-8.9-31.1-11.4-46.8c-1.7-10.7-2.7-22.1-3.3-34.8c-0.4-8.8-0.2-17.6,0.1-26.2l0.1-1.9
		c0-1.6,0.7-2.9,1.4-3.9c8.8-13.7,18.5-26.5,29-38c24.2-26.6,54.2-48.6,89-65.3c16.1-7.7,33.3-14.3,52.4-20c1.9-0.6,3.6-0.6,5.3-0.2
		c39.5,10.4,75.4,28.4,106.7,53.7c23.4,18.9,43.9,41.4,62.9,68.8c1.3,1.8,1.8,3.6,1.8,5.6c0,2.5,0.1,5.1,0.2,7.6
		c0.2,3.1,0.3,6.2,0.2,9.2c0,24-2.9,47.6-8.6,70.2c-5.7,22.4-14.3,44.5-25.7,65.6c-8.6,15.9-18.8,31.8-31.5,48.7
		c-1.1,1.4-2.4,2.1-3.7,2.5c-18.7,7-36.5,12-54.5,15.2c-12.3,2.2-25.1,3.6-39.2,4.3C277.4-34,273.5-33.9,269.6-33.9z M270.2-380.2
		c-0.6,0-1.2,0.1-1.9,0.3c-18.7,5.7-35.5,12.1-51.3,19.7c-34,16.3-63.3,37.7-86.9,63.7c-10.2,11.3-19.7,23.7-28.3,37.1
		c-0.5,0.8-0.8,1.3-0.8,1.9l-0.1,1.9c-0.2,8.4-0.5,17.1-0.1,25.7c0.6,12.4,1.6,23.5,3.3,34c2.4,15.3,6.1,30.7,11.1,45.7
		c10.6,31.7,26.7,61.4,49.1,90.6c0.5,0.6,1,1,1.8,1.3c26.2,9.3,51.1,15,76.2,17.4c13.9,1.4,26.5,1.7,38.6,1.1
		c13.8-0.7,26.4-2,38.4-4.2c17.6-3.1,35-8,53.3-14.8c1-0.4,1.5-0.7,1.8-1.2c12.4-16.6,22.5-32.2,30.8-47.8
		c22.3-41.3,33.5-85.9,33.5-132.7v-0.1c0.2-2.8,0-5.7-0.2-8.7c-0.1-2.5-0.3-5.1-0.2-7.8c0-1.1-0.3-2.1-1.1-3.2
		c-18.6-26.8-38.7-48.9-61.5-67.3c-30.5-24.7-65.6-42.3-104.2-52.4C271-380.1,270.6-380.2,270.2-380.2z"/>
	<path id="XMLID_50_" class="st0" d="M269.6-39.5c-8.6,0-17.5-0.5-27.1-1.4c-24.8-2.4-49.5-8.1-75.4-17.2c-1.4-0.5-2.6-1.3-3.5-2.5
		c-22.2-28.9-38.1-58.3-48.6-89.7c-5-14.8-8.7-30.1-11-45.3c-1.6-10.4-2.7-21.4-3.2-33.6c-0.4-8.5-0.1-17.1,0.1-25.4l0.1-1.8
		c0-1.6,0.7-2.8,1.4-3.8c8.5-13.3,17.9-25.6,28.1-36.8c23.4-25.8,52.4-47,86.1-63.2c15.6-7.5,32.2-13.8,50.7-19.4
		c1.8-0.6,3.5-0.6,5.1-0.2c38.3,10,73,27.5,103.3,52c22.6,18.3,42.5,40.1,60.9,66.6c1.2,1.8,1.8,3.5,1.8,5.4c0,2.4,0.1,4.9,0.2,7.3
		c0.2,3,0.3,6,0.2,8.9c0,23.3-2.8,46.1-8.3,67.9c-5.5,21.7-13.9,43-24.9,63.5c-8.3,15.4-18.2,30.8-30.4,47.1c-1,1.4-2.4,2-3.5,2.5
		C353.6-51.8,336.4-47,319-43.9c-11.9,2.1-24.3,3.5-38,4.1C277.1-39.6,273.4-39.5,269.6-39.5z M270.2-376.3c-0.6,0-1.1,0.1-1.8,0.3
		c-18.4,5.6-34.8,11.8-50.2,19.2c-33.2,15.9-61.8,36.9-84.9,62.3c-10,11-19.3,23.2-27.7,36.2c-0.5,0.8-0.8,1.3-0.8,1.8l-0.1,1.8
		c-0.2,8.2-0.5,16.7-0.1,25.1c0.6,12.1,1.6,23,3.2,33.2c2.3,15,6,30,10.8,44.6c10.4,31,26.1,60,48,88.6c0.5,0.6,1,1,1.7,1.3
		c25.6,9.1,50,14.6,74.5,17c13.6,1.3,25.9,1.7,37.7,1.1c13.5-0.7,25.8-2,37.5-4.1c17.2-3,34.2-7.8,52.1-14.5c1-0.4,1.4-0.7,1.8-1.1
		c12.1-16.2,21.9-31.4,30.1-46.7c21.7-40.4,32.7-84,32.7-129.6v-0.1c0.2-2.7,0-5.5-0.2-8.5c-0.1-2.5-0.3-5-0.2-7.6
		c0-1.1-0.3-2-1.1-3.1c-18.1-26.2-37.8-47.7-60.1-65.8c-29.8-24.1-64.1-41.4-101.8-51.2C271-376.2,270.6-376.3,270.2-376.3z"/>
	<path id="XMLID_51_" class="st3" d="M386.9-213.1c-0.1,0-0.2-0.1-0.3-0.1v-0.6c0,0-3-0.9-7.3-1.7c-1-0.2-2-0.4-3-0.5
		c-2.9-0.4-6.2-0.8-9.2-0.7c-0.7,0-1.3,0-1.8,0c-2.6-12-7.6-23.2-14.6-33.1c7.2-6.2,12.7-17.7,12.7-17.7L339.7-291
		c-8.1,3.7-15.3,11-18.3,14.2c-9.8-5.9-20.8-10.1-32.5-12.4c1.4-15.3-3.3-24.7-3.3-24.7h-15.9h-15.9c0,0-4.6,9.4-3.3,24.7
		c-11.7,2.2-22.7,6.5-32.5,12.4c-2.9-3.2-10.2-10.5-18.3-14.2L176-267.6c0,0,5.5,11.4,12.7,17.7c-7,9.9-12,21.1-14.6,33.1
		c-0.5,0-1.1,0-1.8,0c-3.1-0.1-6.3,0.3-9.2,0.7c-1,0.1-2,0.3-3,0.5c-4.2,0.8-7.3,1.7-7.3,1.7v0.6c-0.1,0-0.2,0.1-0.3,0.1l0.1,16.3
		l-0.1,16.3c0.1,0,0.2,0.1,0.3,0.1v0.6c0,0,3.1,0.9,7.4,1.7c0.9,0.2,1.8,0.3,2.7,0.5c3,0.5,6.3,0.8,9.4,0.7c1,0,1.8,0,2.3,0
		c2.8,11.8,8,22.7,15.1,32.3c-7.7,6-13.7,18.5-13.7,18.5l23.7,23.5c9.8-4.5,18.5-14.4,19.5-15.6c9.6,5.5,20.2,9.5,31.5,11.7
		c-2,16.6,3,26.8,3,26.8h15.9h15.9c0,0,5-10.2,3-26.8c11.3-2.1,22-6.1,31.5-11.7c1,1.2,9.7,11.1,19.5,15.6l23.7-23.5
		c0,0-6-12.5-13.7-18.5c7-9.6,12.2-20.5,15.1-32.3c0.5,0,1.3,0,2.3,0c3.1,0.1,6.4-0.3,9.4-0.7c0.9-0.1,1.8-0.3,2.7-0.5
		c4.3-0.8,7.4-1.7,7.4-1.7v-0.6c0.1,0,0.2-0.1,0.3-0.1l-0.1-16.3L386.9-213.1z"/>
	<path id="XMLID_54_" class="st2" d="M285.6-78.6h-31.8c-0.4,0-0.8-0.2-1-0.6s-5-10.3-3.3-26.4c-10.6-2.1-20.7-5.9-30.1-11.1
		c-2.3,2.6-10.4,11.1-19.3,15.2c-0.4,0.2-0.9,0.1-1.2-0.2l-23.7-23.5c-0.3-0.3-0.4-0.8-0.2-1.3c0.2-0.5,5.8-11.9,13.2-18.2
		c-6.8-9.5-11.6-19.9-14.4-31c-0.5,0-1,0-1.5,0c-2.8,0.1-6-0.2-9.5-0.7c-1-0.1-1.9-0.3-2.8-0.5c-4.3-0.8-7.3-1.7-7.5-1.8
		c-0.5-0.1-0.8-0.6-0.8-1c-0.2-0.2-0.3-0.5-0.3-0.8l0.1-16.3l-0.1-16.3c0-0.3,0.1-0.6,0.3-0.8c0-0.5,0.3-0.9,0.8-1
		c0.1,0,3.1-0.9,7.4-1.8c1-0.2,2-0.4,3.1-0.5c3.5-0.5,6.6-0.8,9.4-0.7c0.3,0,0.6,0,0.9,0c2.6-11.4,7.3-22.1,14-31.8
		c-6.9-6.4-12-16.9-12.2-17.4c-0.2-0.4-0.1-0.9,0.2-1.3l23.7-23.5c0.3-0.3,0.8-0.4,1.2-0.2c7.8,3.5,14.8,10.4,18,13.8
		c9.6-5.7,20.1-9.6,31.2-11.9c-1.1-14.9,3.3-23.9,3.4-24.3c0.2-0.4,0.6-0.6,1-0.6h31.8c0.4,0,0.8,0.2,1,0.6
		c0.2,0.4,4.5,9.4,3.4,24.3c11,2.2,21.5,6.2,31.2,11.9c3.2-3.4,10.3-10.2,18-13.8c0.4-0.2,0.9-0.1,1.2,0.2l23.7,23.5
		c0.3,0.3,0.4,0.8,0.2,1.3c-0.2,0.5-5.3,11-12.2,17.4c6.7,9.7,11.4,20.5,14,31.8c0.3,0,0.6,0,1,0c2.8-0.1,5.9,0.2,9.4,0.7
		c1,0.2,2.1,0.3,3.1,0.5c4.2,0.8,7.3,1.7,7.4,1.8c0.5,0.1,0.8,0.6,0.8,1c0.2,0.2,0.3,0.5,0.3,0.8l-0.1,16.3l0.1,16.3
		c0,0.3-0.1,0.6-0.3,0.8c0,0.5-0.3,0.9-0.8,1c-0.1,0-3.2,1-7.5,1.8c-0.9,0.2-1.8,0.3-2.8,0.5c-3.5,0.5-6.7,0.8-9.6,0.7
		c-0.5,0-1,0-1.5,0c-2.8,11.1-7.7,21.5-14.4,31c7.4,6.3,12.9,17.7,13.2,18.2c0.2,0.4,0.1,0.9-0.2,1.3l-23.8,23.4
		c-0.3,0.3-0.8,0.4-1.2,0.2c-8.9-4.1-17-12.6-19.3-15.2c-9.3,5.3-19.4,9-30.1,11.1c1.7,16.1-3.1,26-3.3,26.4
		C286.4-78.8,286-78.6,285.6-78.6z M254.5-80.8h30.4c1-2.4,4.3-11.8,2.7-25.5c-0.1-0.6,0.3-1.1,0.9-1.2c11-2.1,21.5-6,31.2-11.5
		c0.5-0.3,1-0.2,1.4,0.2c0.9,1.1,9.1,10.5,18.5,15l22.6-22.4c-1.4-2.7-6.7-12.4-13-17.4c-0.5-0.4-0.6-1-0.2-1.5
		c7.1-9.7,12.1-20.4,14.9-31.9c0.1-0.5,0.6-0.8,1.1-0.8l0,0c0.5,0,1.3,0,2.3,0c2.7,0.1,5.9-0.2,9.2-0.7c0.9-0.1,1.8-0.3,2.7-0.5
		c3-0.6,5.4-1.2,6.5-1.5c0-0.2,0.1-0.4,0.3-0.5l-0.1-15.7l0.1-15.7c-0.1-0.1-0.2-0.3-0.3-0.5c-1.1-0.3-3.5-0.9-6.4-1.5
		c-1-0.2-1.9-0.4-3-0.5c-3.3-0.5-6.4-0.7-9.1-0.7c-0.8,0-1.4,0-1.8,0l0,0c-0.5,0-1-0.4-1.1-0.9c-2.5-11.7-7.4-22.7-14.4-32.7
		c-0.3-0.5-0.2-1.1,0.2-1.5c6-5.1,10.8-14.1,12.1-16.6l-22.8-22.5c-7.7,3.7-14.6,10.7-17.2,13.6c-0.4,0.4-0.9,0.5-1.4,0.2
		c-9.9-5.9-20.7-10-32.2-12.2c-0.6-0.1-0.9-0.6-0.9-1.2c1.1-12.6-1.9-21.2-2.9-23.5h-30.4c-0.9,2.3-4,10.8-2.9,23.5
		c0,0.6-0.3,1.1-0.9,1.2c-11.4,2.2-22.3,6.3-32.2,12.2c-0.4,0.3-1,0.2-1.4-0.2c-2.7-2.9-9.6-9.9-17.2-13.6l-22.6,22.4
		c1.3,2.5,6.1,11.5,12.1,16.6c0.4,0.4,0.5,1,0.2,1.5c-7,10-11.9,21-14.4,32.7c-0.1,0.5-0.6,0.9-1.1,0.9l0,0c-0.5,0-1.1,0-1.8,0
		c-2.7-0.1-5.8,0.2-9.1,0.7c-1,0.1-2,0.3-3,0.5c-2.9,0.6-5.3,1.2-6.4,1.5c0,0.2-0.1,0.4-0.3,0.5l0.1,15.7l-0.1,15.7
		c0.1,0.1,0.2,0.3,0.3,0.5c1.2,0.3,3.6,0.9,6.5,1.5c0.9,0.2,1.8,0.3,2.7,0.5c3.4,0.5,6.5,0.8,9.2,0.7c1,0,1.8,0,2.3,0l0,0
		c0.5,0,0.9,0.3,1.1,0.8c2.8,11.5,7.8,22.2,14.9,31.9c0.4,0.5,0.3,1.2-0.2,1.5c-6.4,4.9-11.6,14.7-13,17.4l22.6,22.4
		c9.3-4.5,17.5-13.9,18.5-15c0.3-0.4,0.9-0.5,1.4-0.2c9.6,5.6,20.1,9.4,31.2,11.5c0.6,0.1,1,0.6,0.9,1.2
		C250.2-92.5,253.5-83.2,254.5-80.8z"/>
	<path id="XMLID_55_" class="st4" d="M269.7-272.2c-43,0-77.8,33.3-77.8,74.3s34.8,74.2,77.8,74.3c43,0,77.8-33.3,77.8-74.3
		S312.6-272.1,269.7-272.2z"/>
	<path id="XMLID_58_" class="st2" d="M269.7-122.5c-43.5,0-78.9-33.8-78.9-75.4c0-41.5,35.4-75.3,78.9-75.4l0,0
		c43.5,0,78.9,33.8,78.9,75.4C348.5-156.4,313.2-122.5,269.7-122.5z M269.7-271.1c-42.3,0-76.7,32.9-76.7,73.2s34.4,73.1,76.7,73.2
		c42.3,0,76.7-32.9,76.7-73.2S312-271,269.7-271.1L269.7-271.1z"/>
	<polygon id="XMLID_59_" class="st5" points="269.7,-122.8 269.6,-122.8 215.7,-122.8 215.7,-113.4 269.6,-113.4 269.7,-113.4 
		323.6,-113.4 323.6,-122.8 	"/>
	<path id="XMLID_62_" class="st0" d="M323.6-112.3H215.7c-0.6,0-1.1-0.5-1.1-1.1v-9.4c0-0.6,0.5-1.1,1.1-1.1h107.9
		c0.6,0,1.1,0.5,1.1,1.1v9.4C324.7-112.8,324.2-112.3,323.6-112.3z M216.8-114.5h105.7v-7.2H216.8V-114.5z"/>
	<g id="XMLID_65_">
		<g>
			<g>
				<defs>
					<path id="SVGID_1_" d="M269.7-264.9c-38.8,0-70.2,30-70.2,67s31.4,67,70.2,67c38.7,0,70.2-30,70.2-67S308.4-264.9,269.7-264.9z
						"/>
				</defs>
				<clipPath id="SVGID_2_">
					<use xlink:href="#SVGID_1_"  style="overflow:visible;"/>
				</clipPath>
				
					<radialGradient id="XMLID_3_" cx="200.0673" cy="-121.131" r="0.9999" gradientTransform="matrix(68.6019 0 0 -68.6019 -13455.3496 -8507.7178)" gradientUnits="userSpaceOnUse">
					<stop  offset="0" style="stop-color:#C1DDF3"/>
					<stop  offset="1" style="stop-color:#5A71B5"/>
				</radialGradient>
				<rect id="XMLID_66_" x="199.5" y="-264.9" class="st6" width="140.3" height="134"/>
			</g>
		</g>
	</g>
	<path id="XMLID_68_" class="st2" d="M269.7-129.8c-39.3,0-71.3-30.6-71.3-68.1s32-68.1,71.3-68.1l0,0c39.3,0,71.3,30.6,71.3,68.1
		C340.9-160.4,309-129.8,269.7-129.8z M269.7-263.8c-38.1,0-69.1,29.6-69.1,65.9s31,65.9,69.1,65.9s69.1-29.6,69.1-65.9
		C338.7-234.2,307.8-263.8,269.7-263.8L269.7-263.8z"/>
	<path id="XMLID_71_" class="st2" d="M270.1-129.8h-0.3h-0.1h-0.1h-0.3c-8.8,0-19.4-5.5-28.4-14.7c-13.4-13.8-20.8-33.3-20.3-53.5
		c1.2-44.4,29-68.1,48.6-68.1h0.3h0.1h0.1h0.3c19.6,0,47.4,23.7,48.6,68.1c0.6,20.2-6.8,39.7-20.3,53.5
		C289.5-135.3,278.9-129.8,270.1-129.8z M269.7-132h0.2h0.2c8.2,0,18.3-5.2,26.8-14c13-13.4,20.2-32.3,19.7-51.9
		c-0.7-24.7-9.5-40.4-16.8-49.2c-8.7-10.5-19.7-16.7-29.6-16.7H270h-0.2h-0.2h-0.2c-9.9,0-20.9,6.3-29.6,16.7
		c-7.3,8.8-16.2,24.5-16.8,49.2c-0.5,19.6,6.6,38.5,19.7,51.9c8.5,8.8,18.5,14,26.8,14H269.7L269.7-132z"/>
	<path id="XMLID_74_" class="st2" d="M270.1-129.8c-0.1,0-0.2,0-0.3,0h-0.1h-0.1c-0.1,0-0.2,0-0.3,0c-5.2,0-11.7-7.8-17-20.3
		c-3.4-8.1-9.2-25.1-9.2-47.8c0-6.3,1.8-19.2,5.8-32.4c3.4-11.4,9.6-26.7,19.6-35.4c0.1-0.1,0.3-0.2,0.5-0.4c0.4-0.3,0.9-0.3,1.3,0
		c0.2,0.1,0.3,0.2,0.5,0.4c10,8.7,16.2,24,19.6,35.4c4,13.3,5.8,26.1,5.8,32.4c0,22.7-5.7,39.7-9.2,47.8
		C281.8-137.6,275.3-129.8,270.1-129.8z M269.7-132L269.7-132h0.2h0.2c8,0,24-28.5,24-65.9c0-12.7-7.3-50.7-24.4-65.9
		c-17.1,15.2-24.4,53.2-24.4,65.9c0,37.4,16,65.9,24,65.9h0.2H269.7L269.7-132z"/>
	<polygon id="XMLID_75_" class="st5" points="269.7,-119.3 269.6,-119.3 207.2,-119.3 207.2,-113.4 269.6,-113.4 269.7,-113.4 
		332.1,-113.4 332.1,-119.3 	"/>
	<path id="XMLID_78_" class="st0" d="M332.1-112.3H207.2c-0.6,0-1.1-0.5-1.1-1.1v-5.9c0-0.6,0.5-1.1,1.1-1.1h124.9
		c0.6,0,1.1,0.5,1.1,1.1v5.9C333.2-112.8,332.7-112.3,332.1-112.3z M208.3-114.5H331v-3.7H208.3V-114.5z"/>
	<polygon id="XMLID_79_" class="st5" points="269.7,-113.4 195.2,-113.4 195.2,-107.5 269.7,-107.5 344.2,-107.5 344.2,-113.4 	"/>
	<path id="XMLID_82_" class="st0" d="M344.2-106.4h-149c-0.6,0-1.1-0.5-1.1-1.1v-5.9c0-0.6,0.5-1.1,1.1-1.1h148.9
		c0.6,0,1.1,0.5,1.1,1.1v5.9C345.3-106.9,344.8-106.4,344.2-106.4z M196.3-108.6H343v-3.7H196.3V-108.6z"/>
	<polygon id="XMLID_83_" class="st5" points="269.7,-109.1 269.6,-109.1 181.7,-109.1 181.7,-103.2 269.6,-103.2 269.7,-103.2 
		357.7,-103.2 357.7,-109.1 	"/>
	<path id="XMLID_86_" class="st0" d="M357.7-102.1h-176c-0.6,0-1.1-0.5-1.1-1.1v-5.9c0-0.6,0.5-1.1,1.1-1.1h175.9
		c0.6,0,1.1,0.5,1.1,1.1v5.9C358.8-102.6,358.3-102.1,357.7-102.1z M182.8-104.3h173.7v-3.7H182.8V-104.3z"/>
	<polygon id="XMLID_87_" class="st5" points="269.7,-105.5 269.6,-105.5 171.7,-105.5 171.7,-99.6 269.6,-99.6 269.7,-99.6 
		367.6,-99.6 367.6,-105.5 	"/>
	<path id="XMLID_90_" class="st0" d="M367.6-98.5H171.7c-0.6,0-1.1-0.5-1.1-1.1v-5.9c0-0.6,0.5-1.1,1.1-1.1h195.9
		c0.6,0,1.1,0.5,1.1,1.1v5.9C368.7-99,368.3-98.5,367.6-98.5z M172.8-100.7h193.7v-3.7H172.8V-100.7z"/>
	<polygon id="XMLID_91_" class="st5" points="269.7,-101.7 269.6,-101.7 162.6,-101.7 162.6,-95.8 269.6,-95.8 269.7,-95.8 
		376.7,-95.8 376.7,-101.7 	"/>
	<path id="XMLID_94_" class="st0" d="M376.7-94.7H162.6c-0.6,0-1.1-0.5-1.1-1.1v-5.9c0-0.6,0.5-1.1,1.1-1.1h214.1
		c0.6,0,1.1,0.5,1.1,1.1v5.9C377.8-95.2,377.3-94.7,376.7-94.7z M163.7-96.9h211.9v-3.7H163.7V-96.9z"/>
	<path id="XMLID_97_" class="st2" d="M269.7-211.7c-23.4,0-46-3.4-65.6-9.9c-0.3-0.1-0.5-0.3-0.7-0.6c-0.1-0.3-0.1-0.6,0-0.9
		c5.2-12.5,14.1-23.2,25.8-30.9c11.9-7.9,25.9-12.1,40.5-12.1c14.6,0,28.5,4.2,40.5,12.1c11.7,7.7,20.6,18.4,25.8,30.9
		c0.1,0.3,0.1,0.6,0,0.9s-0.4,0.5-0.7,0.6C315.7-215.1,293.1-211.7,269.7-211.7z M205.9-223.3c19.1,6.1,41.1,9.4,63.8,9.4
		c22.7,0,44.7-3.2,63.8-9.4c-10.8-24.7-35.7-40.5-63.8-40.6C241.6-263.8,216.7-247.9,205.9-223.3z"/>
	<path id="XMLID_100_" class="st2" d="M269.7-248.8c-12.7,0-24.7-2.5-33.7-7.1c-0.4-0.2-0.6-0.6-0.6-1s0.2-0.8,0.6-1
		c10.3-5.3,21.9-8.1,33.7-8.1c11.7,0,23.4,2.8,33.7,8.1c0.4,0.2,0.6,0.6,0.6,1s-0.2,0.8-0.6,1C294.3-251.4,282.4-248.8,269.7-248.8z
		 M239-257c8.4,3.8,19.2,5.9,30.7,5.9c11.4,0,22.2-2.1,30.7-5.9c-9.5-4.5-20-6.8-30.7-6.9C259-263.8,248.5-261.4,239-257z"/>
	<path id="XMLID_103_" class="st2" d="M269.7-228.2c-20.2,0-40-3.6-55.6-10.1c-0.3-0.1-0.6-0.4-0.6-0.7c-0.1-0.3,0-0.7,0.2-1
		c13.6-16.6,34-26.1,56.1-26.1c22,0,42.4,9.5,56.1,26.1c0.2,0.3,0.3,0.6,0.2,1c-0.1,0.3-0.3,0.6-0.6,0.7
		C309.6-231.7,289.9-228.2,269.7-228.2z M216.3-239.7c15.2,6,34.1,9.3,53.4,9.3s38.2-3.3,53.4-9.3c-13.2-15.3-32.6-24.1-53.4-24.1
		C248.9-263.8,229.5-255,216.3-239.7z"/>
	<path id="XMLID_106_" class="st2" d="M269.7-192.9c-24.7,0-48.3-2.8-70.3-8.4c-0.5-0.1-0.9-0.6-0.8-1.1
		c1.2-17.2,9.1-33.2,22.3-45.1c13.3-11.9,30.6-18.5,48.8-18.5s35.5,6.6,48.8,18.5c13.2,11.9,21.1,27.9,22.3,45.1
		c0,0.5-0.3,1-0.8,1.1C318-195.7,294.4-192.9,269.7-192.9z M200.9-203.2c21.5,5.4,44.7,8.1,68.8,8.1c24.2,0,47.3-2.7,68.8-8.1
		c-2.9-34-32.9-60.6-68.8-60.6S203.7-237.3,200.9-203.2z"/>
	<path id="XMLID_109_" class="st2" d="M269.7-211.7c-23.4,0-46-3.4-65.6-9.9c-0.3-0.1-0.5-0.3-0.7-0.6c-0.1-0.3-0.1-0.6,0-0.9
		c5.2-12.5,14.1-23.2,25.8-30.9c11.9-7.9,25.9-12.1,40.5-12.1c14.6,0,28.5,4.2,40.5,12.1c11.7,7.7,20.6,18.4,25.8,30.9
		c0.1,0.3,0.1,0.6,0,0.9s-0.4,0.5-0.7,0.6C315.7-215.1,293.1-211.7,269.7-211.7z M205.9-223.3c19.1,6.1,41.1,9.4,63.8,9.4
		c22.7,0,44.7-3.2,63.8-9.4c-10.8-24.7-35.7-40.5-63.8-40.6C241.6-263.8,216.7-247.9,205.9-223.3z"/>
	<path id="XMLID_112_" class="st2" d="M269.7-129.8c-14.3,0-28.1-4-39.9-11.7c-0.4-0.2-0.6-0.7-0.5-1.1c0.1-0.4,0.4-0.8,0.8-0.9
		c12.3-3.2,25.7-4.8,39.5-4.8c13.9,0,27.2,1.6,39.5,4.8c0.4,0.1,0.7,0.5,0.8,0.9s-0.1,0.9-0.5,1.1
		C297.8-133.8,284-129.8,269.7-129.8z M233.2-141.9c10.9,6.5,23.5,9.9,36.5,9.9s25.5-3.4,36.5-9.9c-11.4-2.7-23.7-4.1-36.5-4.1
		C256.9-146,244.7-144.6,233.2-141.9z"/>
	<path id="XMLID_115_" class="st2" d="M269.7-129.8c-14.9,0-29.2-4.4-41.3-12.6c-11.8-8.1-20.7-19.2-25.7-32.2
		c-0.1-0.3-0.1-0.6,0.1-0.9c0.1-0.3,0.4-0.5,0.7-0.6c20.8-4.9,43.1-7.4,66.2-7.4s45.4,2.5,66.2,7.4c0.3,0.1,0.6,0.3,0.7,0.6
		c0.1,0.3,0.2,0.6,0.1,0.9c-5,13-13.8,24.1-25.7,32.2C298.9-134.1,284.6-129.8,269.7-129.8z M205.2-174.2
		c10.2,25.3,36,42.2,64.4,42.2c28.5,0,54.2-16.9,64.4-42.2c-20.3-4.7-42-7.1-64.4-7.1C247.2-181.2,225.5-178.9,205.2-174.2z"/>
	<path id="XMLID_118_" class="st2" d="M269.7-129.8c-22.1,0-42.6-9.6-56.2-26.2c-0.2-0.3-0.3-0.7-0.2-1c0.1-0.4,0.4-0.6,0.8-0.7
		c17.1-4.5,36.3-6.9,55.6-6.9s38.6,2.4,55.6,6.9c0.4,0.1,0.6,0.4,0.8,0.7c0.1,0.4,0,0.7-0.2,1C312.3-139.4,291.8-129.8,269.7-129.8z
		 M216.3-156.1c13.2,15.3,32.5,24.1,53.4,24.1c20.8,0,40.2-8.8,53.4-24.1c-16.5-4.2-34.9-6.4-53.4-6.4S232.8-160.3,216.3-156.1z"/>
	<path id="XMLID_119_" class="st5" d="M280.3-289.2l-2.8-5.6l-3.4,3.8l-4.4-19.8l-4.5,19.8l-3.4-3.8l-2.8,5.6l-4.5,115.6
		c0,0,7.3-1.1,15.2-1.1s15.2,1.1,15.2,1.1L280.3-289.2z"/>
	<path id="XMLID_122_" class="st0" d="M254.5-172.5c-0.3,0-0.5-0.1-0.7-0.3c-0.2-0.2-0.4-0.5-0.4-0.9l4.5-115.6c0-0.2,0-0.3,0.1-0.4
		l2.8-5.6c0.2-0.3,0.5-0.6,0.8-0.6c0.4,0,0.7,0.1,1,0.4l1.9,2.2l4-17.7c0.1-0.5,0.6-0.9,1.1-0.9s1,0.4,1.1,0.9l4,17.7l1.9-2.2
		c0.2-0.3,0.6-0.4,1-0.4s0.7,0.3,0.8,0.6l2.8,5.6c0.1,0.1,0.1,0.3,0.1,0.4l4.5,115.6c0,0.3-0.1,0.6-0.4,0.9
		c-0.2,0.2-0.6,0.3-0.9,0.3c-0.1,0-7.3-1.1-15-1.1C261.8-173.6,254.5-172.5,254.5-172.5L254.5-172.5z M269.7-175.8
		c5.9,0,11.6,0.6,14.1,0.9L279.3-289l-2-3.9l-2.3,2.6c-0.3,0.3-0.7,0.4-1.1,0.3c-0.4-0.1-0.7-0.4-0.8-0.8l-3.4-15l-3.5,15
		c-0.1,0.4-0.4,0.7-0.8,0.8s-0.8,0-1.1-0.3l-2.3-2.6l-2,3.9l-4.4,114.2C258.1-175.2,263.8-175.8,269.7-175.8z"/>
	<path id="XMLID_123_" class="st5" d="M277.3-175.8L274.2-291l-4.5-19.8l-4.5,19.8l-3.1,115.2l-0.3,1.4c2.4-0.2,5.1-0.3,7.9-0.3
		s5.6,0.1,7.9,0.3L277.3-175.8z"/>
	<path id="XMLID_126_" class="st0" d="M277.6-173.3L277.6-173.3c-2.8-0.2-5.5-0.3-7.9-0.3s-5.1,0.1-7.8,0.3c-0.4,0-0.7-0.1-0.9-0.4
		c-0.2-0.3-0.3-0.6-0.2-1l0.3-1.3l3.1-115.1v-0.2l4.5-19.8c0.1-0.5,0.6-0.9,1.1-0.9s1,0.4,1.1,0.9l4.5,19.8v0.2l3.1,115.1l0.3,1.3
		c0.1,0.3,0,0.7-0.2,1C278.2-173.4,277.9-173.3,277.6-173.3z M269.7-175.8c2.1,0,4.2,0.1,6.5,0.2v-0.2l-3.1-115.1l-3.4-15l-3.4,15
		l-3.1,115.1v0.2C265.4-175.7,267.6-175.8,269.7-175.8z"/>
	<path id="XMLID_127_" class="st0" d="M245.1-157l-0.5,4.1c0,0,3,2.2,12.3,2c9.3-0.2,7.6-9.3,7.6-9.3L245.1-157z"/>
	<path id="XMLID_128_" class="st0" d="M294.3-157l0.5,4.1c0,0-3,2.2-12.3,2c-9.3-0.2-7.6-9.3-7.6-9.3L294.3-157z"/>
	<polygon id="XMLID_129_" class="st5" points="269.7,-155.2 269.6,-155.2 256.9,-155.2 256.9,-145.6 269.6,-145.6 269.7,-145.6 
		282.4,-145.6 282.4,-155.2 	"/>
	<path id="XMLID_132_" class="st0" d="M282.4-144.5h-25.5c-0.6,0-1.1-0.5-1.1-1.1v-9.6c0-0.6,0.5-1.1,1.1-1.1h25.5
		c0.6,0,1.1,0.5,1.1,1.1v9.6C283.5-145,283-144.5,282.4-144.5z M258-146.7h23.3v-7.4H258V-146.7z"/>
	<polygon id="XMLID_133_" class="st5" points="269.7,-155.2 269.6,-155.2 262.6,-155.2 262.6,-145.6 269.6,-145.6 269.7,-145.6 
		276.8,-145.6 276.8,-155.2 	"/>
	<path id="XMLID_136_" class="st0" d="M276.8-144.5h-14.2c-0.6,0-1.1-0.5-1.1-1.1v-9.6c0-0.6,0.5-1.1,1.1-1.1h14.2
		c0.6,0,1.1,0.5,1.1,1.1v9.6C277.9-145,277.4-144.5,276.8-144.5z M263.7-146.7h12v-7.4h-12V-146.7z"/>
	<polygon id="XMLID_137_" class="st5" points="245.8,-126.9 230.6,-124.8 230.6,-143.5 245.8,-145.6 	"/>
	<path id="XMLID_141_" class="st0" d="M230.6-123.7c-0.3,0-0.5-0.1-0.7-0.3c-0.2-0.2-0.4-0.5-0.4-0.8v-18.7c0-0.5,0.4-1,0.9-1.1
		l15.2-2.1c0.3,0,0.6,0,0.9,0.3c0.2,0.2,0.4,0.5,0.4,0.8v18.7c0,0.5-0.4,1-0.9,1.1l-15.2,2.1H230.6z M231.7-142.5v16.5l13-1.8v-16.5
		L231.7-142.5z M245.8-126.9L245.8-126.9L245.8-126.9z"/>
	<polygon id="XMLID_142_" class="st5" points="269.7,-145.6 269.6,-145.6 245.7,-145.6 245.7,-126.9 269.6,-126.9 269.7,-126.9 
		293.7,-126.9 293.7,-145.6 	"/>
	<path id="XMLID_145_" class="st0" d="M293.7-125.8h-48c-0.6,0-1.1-0.5-1.1-1.1v-18.7c0-0.6,0.5-1.1,1.1-1.1h48
		c0.6,0,1.1,0.5,1.1,1.1v18.7C294.8-126.3,294.3-125.8,293.7-125.8z M246.8-128h45.8v-16.5h-45.8V-128z"/>
	<polygon id="XMLID_146_" class="st5" points="293.6,-126.9 308.8,-124.8 308.8,-143.5 293.6,-145.6 	"/>
	<path id="XMLID_149_" class="st0" d="M308.8-123.7h-0.2l-15.2-2.1c-0.5-0.1-0.9-0.5-0.9-1.1v-18.7c0-0.3,0.1-0.6,0.4-0.8
		c0.2-0.2,0.6-0.3,0.9-0.3l15.2,2.1c0.5,0.1,0.9,0.5,0.9,1.1v18.7c0,0.3-0.1,0.6-0.4,0.8C309.3-123.8,309.1-123.7,308.8-123.7z
		 M294.7-127.9l13,1.8v-16.5l-13-1.8V-127.9z"/>
	<path id="XMLID_150_" class="st5" d="M269.7-171.8c-0.8,0-12.4,0-27.2,3.6v16c0,0,10.3-3.9,27.1-3.6l0,0l0,0l0,0l0,0
		c16.8-0.3,27.1,3.6,27.1,3.6v-16C282.1-171.9,270.5-171.8,269.7-171.8z"/>
	<path id="XMLID_153_" class="st0" d="M242.5-151.1c-0.2,0-0.4-0.1-0.6-0.2c-0.3-0.2-0.5-0.5-0.5-0.9v-16c0-0.5,0.3-0.9,0.8-1.1
		c14.7-3.6,26.1-3.6,27.4-3.6c1.3,0,12.8,0,27.4,3.6c0.5,0.1,0.8,0.6,0.8,1.1v16c0,0.4-0.2,0.7-0.5,0.9c-0.3,0.2-0.7,0.3-1,0.1
		c-0.1,0-10.3-3.8-26.7-3.5h-0.1l0,0c-16.5-0.3-26.7,3.5-26.8,3.5C242.8-151.2,242.6-151.1,242.5-151.1z M243.6-167.4v13.6
		c3.4-1.1,12.7-3.4,26.1-3.2h0.1l0,0c13.4-0.2,22.6,2.1,26,3.2v-13.6c-14.3-3.4-25.6-3.4-26.1-3.3l0,0
		C269.2-170.7,257.9-170.8,243.6-167.4z"/>
	<path id="XMLID_154_" class="st5" d="M269.7-171.8c-0.6,0-6.8,0-15.8,1.3v15.7c4.2-0.6,9.6-1.1,15.8-1l0,0l0,0l0,0l0,0
		c6.2-0.1,11.5,0.4,15.8,1v-15.6C276.5-171.8,270.3-171.8,269.7-171.8z"/>
	<path id="XMLID_157_" class="st0" d="M253.9-153.7c-0.3,0-0.5-0.1-0.7-0.3c-0.2-0.2-0.4-0.5-0.4-0.8v-15.6c0-0.5,0.4-1,0.9-1.1
		c9-1.4,15.3-1.4,16-1.3c0.7,0,7,0,16,1.3c0.5,0.1,0.9,0.5,0.9,1.1v15.6c0,0.3-0.1,0.6-0.4,0.8c-0.2,0.2-0.6,0.3-0.9,0.3
		c-5-0.7-10.2-1.1-15.5-1h-0.1h-0.1l0,0C264.2-154.8,259-154.5,253.9-153.7L253.9-153.7z M271.4-156.9c4.4,0,8.8,0.3,13,0.8v-13.4
		c-8.4-1.2-14.1-1.2-14.7-1.2l0,0c-0.6,0-6.4,0-14.7,1.2v13.4c4.7-0.6,9.7-0.9,14.7-0.8l0,0l0,0l0,0
		C270.3-156.9,270.9-156.9,271.4-156.9z"/>
	<path id="XMLID_160_" class="st2" d="M139.9-221.9l-18.9-0.6l0.2-6.1c0.1-2.3,0.2-3.8,0.4-4.5c0.3-1.1,1-2,1.9-2.7
		c1-0.7,2.2-1,3.7-1c1.2,0,2.1,0.3,2.9,0.7c0.8,0.4,1.4,1,1.8,1.7c0.4,0.7,0.7,1.3,0.8,2c0.2,0.9,0.2,2.2,0.1,4l-0.1,2.5l7.3,0.1
		L139.9-221.9z M124.3-226.3l5.4,0.2l0.1-2.1c0-1.5,0-2.5-0.2-3c-0.2-0.5-0.5-0.9-0.9-1.2c-0.4-0.3-0.9-0.5-1.5-0.5
		c-0.7,0-1.3,0.2-1.7,0.6c-0.5,0.4-0.8,0.9-0.9,1.5c-0.1,0.5-0.2,1.4-0.2,2.7L124.3-226.3z"/>
	<path id="XMLID_163_" class="st2" d="M131.6-240.3c-1.8-0.6-3.3-1.4-4.3-2.3c-0.8-0.7-1.4-1.5-1.9-2.5c-0.5-0.9-0.8-1.9-0.9-2.8
		c-0.1-1.3,0.1-2.6,0.5-4.1c0.9-2.6,2.4-4.5,4.5-5.6c2.2-1.1,4.7-1.1,7.6-0.2c2.9,0.9,4.9,2.5,6,4.6c1.1,2.1,1.3,4.5,0.4,7.1
		c-0.9,2.7-2.4,4.5-4.5,5.6C137-239.4,134.5-239.4,131.6-240.3z M132.7-244.1c2,0.7,3.7,0.7,5.1,0.1c1.4-0.6,2.3-1.6,2.7-3.1
		c0.5-1.4,0.3-2.8-0.4-4.1c-0.7-1.3-2.2-2.2-4.2-2.9c-2.1-0.7-3.7-0.7-5.1-0.1c-1.3,0.6-2.2,1.6-2.7,3.1c-0.5,1.5-0.4,2.9,0.4,4.1
		C129.2-245.7,130.6-244.8,132.7-244.1z"/>
	<polygon id="XMLID_164_" class="st2" points="147.3,-256.6 131,-265.7 132.8,-269.1 146.4,-261.5 151,-269.8 153.8,-268.2 	"/>
	
		<rect id="XMLID_165_" x="139" y="-278.6" transform="matrix(0.8192 0.5736 -0.5736 0.8192 -131.8492 -135.1901)" class="st2" width="18.9" height="3.8"/>
	<polygon id="XMLID_166_" class="st2" points="161.7,-278.6 149.7,-288.7 146.1,-284.4 143.7,-286.5 153.4,-298 155.8,-295.9 
		152.2,-291.6 164.2,-281.5 	"/>
	<polygon id="XMLID_167_" class="st2" points="169,-287 156.2,-300.8 166.4,-310.4 168.6,-308 161.1,-301.1 164,-298 171,-304.5 
		173.1,-302.1 166.2,-295.7 169.7,-291.9 177.4,-299.1 179.6,-296.8 	"/>
	<polygon id="XMLID_168_" class="st2" points="181.5,-298.4 170.5,-313.7 173.6,-315.9 178.5,-309.1 179.8,-320.4 184,-323.4 
		182.5,-313.3 195.4,-308.3 191.4,-305.5 182,-309.6 181.3,-305.2 184.6,-300.6 	"/>
	<polygon id="XMLID_169_" class="st2" points="196.5,-308.9 187.4,-325.5 190.7,-327.3 203.5,-319.9 197.5,-331 200.6,-332.7 
		209.7,-316.1 206.3,-314.3 193.7,-321.4 199.6,-310.6 	"/>
	
		<rect id="XMLID_170_" x="201.4" y="-328.6" transform="matrix(0.3997 0.9167 -0.9167 0.3997 -172.9394 -389.3908)" class="st2" width="18.9" height="3.8"/>
	<polygon id="XMLID_171_" class="st2" points="219,-320.2 213.1,-338.1 216.7,-339.3 219.3,-331.4 224,-341.8 228.9,-343.4 
		224.4,-334.2 235.2,-325.6 230.5,-324 222.8,-330.8 220.8,-326.8 222.7,-321.4 	"/>
	<polygon id="XMLID_172_" class="st2" points="243.2,-327.3 240.6,-346 244.2,-346.5 253.6,-335.1 251.9,-347.6 255.4,-348.1 
		258,-329.4 254.2,-328.8 245,-340 246.7,-327.8 	"/>
	<polygon id="XMLID_173_" class="st2" points="261.3,-329.5 261,-348.4 275,-348.6 275.1,-345.4 264.9,-345.3 264.9,-341.1 
		274.4,-341.2 274.5,-338.1 265,-337.9 265.1,-332.8 275.6,-332.9 275.7,-329.7 	"/>
	<path id="XMLID_174_" class="st2" d="M287.7-335.4l0.4-3.2l8.2,1l-0.9,7.5c-0.9,0.7-2.1,1.2-3.7,1.6c-1.6,0.4-3.1,0.5-4.7,0.3
		c-2-0.2-3.6-0.9-5-1.9s-2.3-2.3-2.9-3.9c-0.5-1.6-0.7-3.3-0.5-5.1c0.2-2,0.9-3.6,1.9-5.1c1-1.4,2.3-2.4,4-3.1
		c1.3-0.5,2.8-0.6,4.6-0.4c2.3,0.3,4.1,1,5.3,2.1c1.2,1.1,1.9,2.6,2,4.4l-3.8,0.2c-0.2-1-0.6-1.7-1.2-2.4c-0.7-0.6-1.5-1-2.6-1.1
		c-1.7-0.2-3,0.2-4.1,1.1c-1.1,0.9-1.8,2.4-2,4.5c-0.3,2.2,0,4,0.9,5.2c0.9,1.2,2.1,2,3.7,2.1c0.8,0.1,1.6,0,2.4-0.2
		c0.8-0.2,1.6-0.5,2.2-0.9l0.3-2.4L287.7-335.4z"/>
	<polygon id="XMLID_175_" class="st2" points="297.7,-326.9 302.4,-345.2 316,-341.7 315.2,-338.6 305.3,-341.2 304.2,-337.1 
		313.4,-334.8 312.6,-331.7 303.5,-334 302.2,-329 312.4,-326.4 311.6,-323.3 	"/>
	<path id="XMLID_178_" class="st2" d="M314-322.6l6.9-17.6l7.5,2.9c1.9,0.7,3.2,1.4,3.9,2.1c0.7,0.6,1.2,1.5,1.4,2.5
		c0.2,1,0.1,2-0.3,3.1c-0.5,1.3-1.3,2.3-2.4,2.8c-1.1,0.6-2.5,0.6-4.1,0.3c0.6,0.7,1,1.5,1.3,2.2c0.3,0.7,0.6,1.9,0.9,3.6l0.8,4.3
		l-4.3-1.7l-1.1-4.8c-0.4-1.7-0.7-2.8-0.9-3.3c-0.2-0.5-0.5-0.9-0.8-1.2c-0.3-0.3-0.9-0.6-1.7-0.9l-0.7-0.3l-2.9,7.4L314-322.6z
		 M321.5-331.4l2.6,1c1.7,0.7,2.8,1,3.3,1s0.9-0.1,1.3-0.4c0.4-0.3,0.7-0.7,0.9-1.2c0.2-0.6,0.3-1.1,0.1-1.6
		c-0.2-0.5-0.5-0.9-1.1-1.2c-0.3-0.2-1.1-0.5-2.6-1.1l-2.8-1.1L321.5-331.4z"/>
	
		<rect id="XMLID_179_" x="327.5" y="-325" transform="matrix(-0.4435 0.8963 -0.8963 -0.4435 196.714 -768.3688)" class="st2" width="18.9" height="3.8"/>
	<polygon id="XMLID_180_" class="st2" points="343.1,-309.3 353.9,-324.8 358.6,-321.6 354.1,-309 364.2,-317.7 368.9,-314.4 
		358.1,-298.9 355.2,-300.9 363.7,-313.2 352.1,-303.1 349.1,-305.2 354.5,-319.5 346,-307.3 	"/>
	<path id="XMLID_183_" class="st2" d="M372.8-285.3l-3-2.8l1.7-4.3l-5.5-5.2l-4.1,2.1l-3-2.8l18.3-8.8l3,2.8L372.8-285.3z
		 M372.8-295.6l2.9-6.9l-6.7,3.4L372.8-295.6z"/>
	<polygon id="XMLID_184_" class="st2" points="373.6,-284.2 388.1,-296.1 390.5,-293.1 378.5,-283.3 384.5,-275.9 382,-273.9 	"/>
	<path id="XMLID_187_" class="st2" d="M391.7-257.7l-2.1-3.6l2.9-3.6l-3.8-6.5l-4.5,0.8l-2-3.5l20-3.2l2,3.5L391.7-257.7z
		 M394.6-267.6l4.7-5.8l-7.3,1.3L394.6-267.6z"/>
	<polygon id="XMLID_188_" class="st2" points="392,-256.8 409.9,-262.9 411.1,-259.4 401.7,-248 413.6,-252.1 414.8,-248.7 
		396.9,-242.6 395.7,-246.2 404.9,-257.4 393.2,-253.4 	"/>
	<path id="XMLID_189_" class="st2" d="M405.2-231.7l3.2-0.2l0.6,8.2l-7.5,0.5c-0.8-0.7-1.6-1.9-2.3-3.3c-0.7-1.5-1.1-3-1.2-4.5
		c-0.1-2,0.2-3.7,0.9-5.2c0.7-1.5,1.8-2.7,3.3-3.6c1.5-0.8,3.1-1.3,4.9-1.5c2-0.1,3.7,0.1,5.3,0.9c1.6,0.7,2.8,1.8,3.8,3.4
		c0.7,1.2,1.1,2.6,1.3,4.4c0.2,2.3-0.2,4.2-1.1,5.6s-2.2,2.3-3.9,2.8l-1-3.7c0.9-0.3,1.6-0.9,2.1-1.7c0.5-0.8,0.7-1.7,0.6-2.8
		c-0.1-1.7-0.7-2.9-1.9-3.9c-1.1-0.9-2.7-1.3-4.8-1.1c-2.2,0.2-3.9,0.8-4.9,1.8c-1,1.1-1.5,2.4-1.4,4c0.1,0.8,0.3,1.6,0.6,2.4
		c0.4,0.8,0.8,1.4,1.3,2l2.4-0.2L405.2-231.7z"/>
	<path id="XMLID_190_" class="st2" d="M343.5-78.6c-5-0.4-26.8-12.8-38.4-13.7c-13.1-1.1-34.3,3.6-35.4,3.9v19.3l0,0l0,0
		c14.9-7.1,30.1-6.5,30.1-6.5c12.5,0.3,25.8,10.4,34.2,13.3c8.4,2.9,13.6,1.5,13.6,1.5l-4.1-7.2V-78.6L343.5-78.6z"/>
	<path id="XMLID_193_" class="st0" d="M344-59.5c-2.5,0-6-0.4-10.4-1.9c-2.9-1-6.3-2.8-9.9-4.7c-7.4-3.9-15.9-8.3-24-8.5
		c-0.2,0-15-0.5-29.4,6.3l-0.1,0.1c-0.3,0.2-0.7,0.2-1.1,0.1l0,0c-0.4-0.2-0.6-0.6-0.6-1v-19.3c0-0.5,0.4-1,0.9-1.1
		c0.9-0.2,22.5-5,35.7-3.9c7.2,0.6,18,5.4,26.7,9.2c5.1,2.3,10,4.4,11.7,4.6c0.6,0,1,0.5,1,1.1v10.2l4,7c0.2,0.3,0.2,0.7,0.1,1
		s-0.4,0.6-0.7,0.6C347.8-59.8,346.4-59.5,344-59.5z M298.7-76.8c0.7,0,1.1,0,1.2,0c8.6,0.2,17.6,5,24.9,8.8
		c3.5,1.9,6.9,3.6,9.6,4.5c5.4,1.8,9.4,1.8,11.4,1.7l-3.3-5.8c-0.1-0.2-0.1-0.4-0.1-0.5v-9.5c-2.4-0.6-6.5-2.4-11.4-4.6
		c-8.5-3.8-19.1-8.4-26-9c-11.6-0.9-30,2.8-34.2,3.7v16.7C283-76.3,294.9-76.8,298.7-76.8z"/>
	<path id="XMLID_194_" class="st2" d="M334-62.4c4.2,1.4,7.6,1.8,9.9,1.8s3.6-0.3,3.6-0.3l-4.1-7.2c0,0-5.2-0.1-18.6-7.1
		c-19.2-10-37.2-7.4-55.2-0.4v6.5l0,0l0,0l0,0c12.5-6,25.4-6.5,29.1-6.5c0.7,0,1.1,0,1.1,0C312.3-75.3,325.7-65.2,334-62.4z"/>
	<path id="XMLID_197_" class="st0" d="M344-59.5L344-59.5c-2.3,0-5.9-0.3-10.4-1.9c-2.9-1-6.3-2.8-9.9-4.7c-7.4-3.9-15.9-8.3-24-8.5
		c0,0-0.4,0-1,0c-3.6,0-16.1,0.5-28.3,6.3l-0.1,0.1c-0.3,0.2-0.7,0.2-1.1,0.1c-0.4-0.2-0.7-0.6-0.7-1v-6.5c0-0.5,0.3-0.9,0.7-1
		c14.7-5.7,34.4-10.8,56.1,0.4c12.9,6.7,18.1,7,18.1,7c0.4,0,0.7,0.2,0.9,0.6l4.1,7.2c0.2,0.3,0.2,0.7,0.1,1
		c-0.1,0.3-0.4,0.6-0.7,0.6C347.8-59.8,346.5-59.5,344-59.5z M298.8-76.8c0.7,0,1.1,0,1.1,0c8.6,0.2,17.6,5,24.9,8.8
		c3.5,1.9,6.9,3.6,9.6,4.5c4.2,1.4,7.5,1.7,9.6,1.7c0.8,0,1.4,0,1.9-0.1l-3.1-5.3c-1.8-0.2-7.4-1.4-18.4-7.2
		c-20.6-10.7-39.4-6-53.6-0.6v4C283-76.3,295.2-76.8,298.8-76.8L298.8-76.8z"/>
	<path id="XMLID_198_" class="st2" d="M195.9-78.6c5-0.4,26.8-12.8,38.4-13.7c13.1-1.1,34.3,3.6,35.4,3.9v19.3l0,0l0,0
		c-14.9-7.1-30.1-6.5-30.1-6.5c-12.5,0.3-25.8,10.4-34.2,13.3c-8.4,2.9-13.6,1.5-13.6,1.5l4.1-7.2C195.9-68,195.9-78.6,195.9-78.6z"
		/>
	<path id="XMLID_202_" class="st0" d="M195.3-59.5c-2.4,0-3.7-0.3-3.8-0.4c-0.3-0.1-0.6-0.3-0.7-0.6c-0.1-0.3-0.1-0.7,0.1-1l4-7
		v-10.2c0-0.6,0.4-1,1-1.1c1.8-0.2,6.6-2.3,11.7-4.6c8.7-3.8,19.5-8.6,26.7-9.2c13.3-1.1,34.8,3.7,35.7,3.9c0.5,0.1,0.9,0.6,0.9,1.1
		v19.3c0,0.4-0.2,0.8-0.6,1h-0.1c-0.3,0.2-0.7,0.1-1.1-0.1l-0.1-0.1c-14.4-6.8-29.2-6.3-29.4-6.3c-8.1,0.2-16.5,4.6-24,8.5
		c-3.6,1.9-7,3.7-9.9,4.7C201.3-59.8,197.8-59.5,195.3-59.5z M193.5-61.7c2,0.2,6.1,0.2,11.4-1.7c2.7-0.9,6-2.7,9.6-4.5
		c7.3-3.8,16.3-8.6,24.9-8.8c0.6,0,14.7-0.5,29.1,5.9v-16.7c-4.2-0.9-22.6-4.6-34.2-3.7c-6.8,0.6-17.4,5.2-26,9c-5,2.2-9,4-11.4,4.6
		v9.5c0,0.2-0.1,0.4-0.1,0.5L193.5-61.7z M195.9-68.1L195.9-68.1L195.9-68.1z"/>
	<path id="XMLID_203_" class="st2" d="M205.3-62.4c-4.2,1.4-7.6,1.8-9.9,1.8s-3.6-0.3-3.6-0.3l4.1-7.2c0,0,5.2-0.1,18.6-7.1
		c19.2-10,37.2-7.4,55.2-0.4v6.5l0,0l0,0l0,0c-12.5-6-25.4-6.5-29.1-6.5c-0.7,0-1.1,0-1.1,0C227-75.3,213.7-65.2,205.3-62.4z"/>
	<path id="XMLID_206_" class="st0" d="M195.3-59.5c-2.4,0-3.8-0.4-3.8-0.4c-0.3-0.1-0.6-0.3-0.7-0.6c-0.1-0.3-0.1-0.7,0.1-1l4.1-7.2
		c0.2-0.3,0.6-0.6,1-0.6c0,0,5.2-0.3,18.1-7c21.7-11.3,41.4-6.2,56.1-0.4c0.4,0.2,0.7,0.6,0.7,1v6.5c0,0.4-0.2,0.8-0.6,1l0,0
		c-0.3,0.2-0.7,0.1-1.1-0.1l-0.1-0.1c-12.3-5.8-24.8-6.3-28.4-6.3c-0.6,0-1,0-1,0c-8.1,0.2-16.5,4.6-24,8.5c-3.6,1.9-7,3.7-9.9,4.7
		C201.2-59.8,197.6-59.5,195.3-59.5L195.3-59.5z M193.5-61.7c0.5,0,1.1,0.1,1.9,0.1c2.1,0,5.4-0.3,9.6-1.7c2.7-0.9,6-2.7,9.6-4.5
		c7.3-3.8,16.3-8.6,24.9-8.8c0,0,0.4,0,1.1,0c3.6,0,15.8,0.4,28,5.9v-4c-14.2-5.4-33-10.1-53.6,0.6c-11,5.7-16.6,6.9-18.4,7.2
		L193.5-61.7z"/>
	<g id="XMLID_15_">
		<g>
			<path class="st2" d="M491.8-320.4h61.1c35.7,0,57.3,21.2,57.3,51.7v0.4c0,34.6-26.9,52.6-60.5,52.6h-25v44.9h-32.9V-320.4z
				 M550.8-244.9c16.5,0,26.1-9.8,26.1-22.7v-0.4c0-14.8-10.3-22.7-26.7-22.7h-25.4v45.8H550.8z"/>
			<path class="st2" d="M816.3-320.4h68.4c19,0,33.8,5.3,43.6,15.2c8.3,8.3,12.8,20.1,12.8,34.2v0.4c0,24.2-13,39.3-32.1,46.4
				l36.6,53.5h-38.5L875-218.6h-25.9v47.9h-32.9v-149.7H816.3z M882.6-247.7c16,0,25.2-8.6,25.2-21.2v-0.4
				c0-14.1-9.8-21.4-25.9-21.4h-32.7v43L882.6-247.7L882.6-247.7z"/>
			<path class="st2" d="M1005.8-290h-45.5v-30.4h124v30.4h-45.5v119.3h-32.9L1005.8-290L1005.8-290z"/>
			<path class="st2" d="M1141.5-321.4h30.4l64.1,150.7h-34.4l-13.7-33.6h-63.3l-13.6,33.6h-33.6L1141.5-321.4z M1176.2-233.3
				l-19.9-48.5l-19.9,48.5H1176.2z"/>
			<path class="st2" d="M1259.1-320.4h32.9v119.7h74.6v29.9h-107.5V-320.4z"/>
		</g>
	</g>
	<g id="XMLID_1_">
		<g>
			<path class="st2" d="M495.5-130.1h34.8c20.5,0,33.5,11.7,33.5,29.5v0.3c0,19.8-15.9,30.1-35.3,30.1H511v28.3h-15.5V-130.1z
				 M529-84.3c11.7,0,19-6.6,19-15.7v-0.3c0-10.3-7.4-15.7-19-15.7h-18v31.7H529z"/>
			<path class="st2" d="M601-85.8v-0.3c0-24.8,19.1-45.6,46.2-45.6s46,20.5,46,45.4v0.3c0,24.8-19.1,45.6-46.2,45.6S601-61,601-85.8
				z M676.9-85.8v-0.3c0-17.1-12.5-31.4-30-31.4s-29.7,14-29.7,31.1v0.3c0,17.1,12.5,31.4,30,31.4S676.9-68.7,676.9-85.8z"/>
			<path class="st2" d="M737.1-130.1h15.5V-56H799v14.1h-61.9V-130.1z"/>
			<path class="st2" d="M841.2-130.1h15.5v88.2h-15.5V-130.1z"/>
			<path class="st2" d="M905.4-130.1h14.4l47.2,61v-61h15.2v88.2h-13l-48.6-62.7v62.7h-15.2L905.4-130.1L905.4-130.1z"/>
			<path class="st2" d="M1030.1-130.1h65.4v13.9h-49.9v22.9h44.2v13.9h-44.2v23.7h50.5v13.9h-66V-130.1z"/>
			<path class="st2" d="M1139.7-130.1h16.5l26.8,41.7l26.8-41.7h16.5v88.2h-15.5v-63.2L1183-63.5h-0.5l-27.5-41.4v63h-15.2
				L1139.7-130.1L1139.7-130.1z"/>
			<path class="st2" d="M1305.5-130.8h14.4l38.8,88.8h-16.4l-8.9-21.3h-41.7l-9.1,21.3h-15.9L1305.5-130.8z M1327.7-77l-15.2-35.3
				L1297.4-77H1327.7z"/>
		</g>
	</g>
</g>
<path class="st2" d="M658.7-321.2c-10.3,0-18.9,8.5-18.9,18.9v116.7c0,10.3,8.5,18.8,18.9,18.8h23.5v29.7c0,3.1,2.7,6.8,5.5,5.5
	c0,0,54.8-23.7,82.1-35.6c2.8-1.2,5.6-2.4,5.6-5.5v-142.8c0-2.7-2.1-5.8-4.6-5.8C733.5-321.3,667.6-321.2,658.7-321.2z M687.8-285.5
	c-2.8,1.2-5.5,2.4-5.5,5.5v100.8h-23.5c-3.7,0-6.6-2.8-6.6-6.5v-116.7c0-3.7,2.9-6.6,6.6-6.6h83.2L687.8-285.5z"/>
</svg>
